<?xml version="1.0" encoding="utf-8"?>
<!-- Generator: Adobe Illustrator 18.1.1, SVG Export Plug-In . SVG Version: 6.00 Build 0)  -->
<svg version="1.1" id="Layer_1" xmlns="http://www.w3.org/2000/svg" xmlns:xlink="http://www.w3.org/1999/xlink" x="0px" y="0px"
	 viewBox="0 0 72.2 77" enable-background="new 0 0 72.2 77" xml:space="preserve">
<path fill="#CECECE" d="M65.9,77H6.4c-3.5,0-6.3-2.8-6.3-6.3V11.3c0-3.5,2.8-6.3,6.3-6.3h59.5c3.5,0,6.3,2.8,6.3,6.3v59.5
	C72.2,74.2,69.4,77,65.9,77z"/>
<path fill="#F3F3F3" d="M65.8,72.1H6.3c-3.5,0-6.3-2.8-6.3-6.3V6.3C0,2.8,2.8,0,6.3,0h59.5c3.5,0,6.3,2.8,6.3,6.3v59.5
	C72.1,69.3,69.3,72.1,65.8,72.1z"/>
<text transform="matrix(1 0 0 1 19.4436 63.8171)" fill="#74797E" font-family="'GothamRounded-Light'" font-size="47.8467">8</text>
<rect x="13.9" y="13.4" fill="#E15258" width="44.2" height="8.7"/>
</svg>
