<?xml version="1.0" encoding="utf-8"?>
<!-- Generator: Adobe Illustrator 18.1.1, SVG Export Plug-In . SVG Version: 6.00 Build 0)  -->
<svg version="1.1" id="Layer_1" xmlns="http://www.w3.org/2000/svg" xmlns:xlink="http://www.w3.org/1999/xlink" x="0px" y="0px"
	 viewBox="0 0 72.2 77" enable-background="new 0 0 72.2 77" xml:space="preserve">
<path fill="#5E4F89" d="M65.9,77H6.4c-3.5,0-6.3-2.8-6.3-6.3V11.3c0-3.5,2.8-6.3,6.3-6.3h59.5c3.5,0,6.3,2.8,6.3,6.3v59.5
	C72.2,74.2,69.4,77,65.9,77z"/>
<path fill="#7859B5" d="M65.8,72.1H6.3c-3.5,0-6.3-2.8-6.3-6.3V6.3C0,2.8,2.8,0,6.3,0h59.5c3.5,0,6.3,2.8,6.3,6.3v59.5
	C72.1,69.3,69.3,72.1,65.8,72.1z"/>
<polygon fill="#E4DEF0" points="36,9.9 42.6,30.4 64.2,30.4 46.8,42.6 53.4,62.9 36,50.2 18.6,62.7 25.2,42.7 7.8,30.4 29.3,30.4 
	"/>
</svg>
