<?xml version="1.0" encoding="utf-8"?>
<!-- Generator: Adobe Illustrator 18.1.1, SVG Export Plug-In . SVG Version: 6.00 Build 0)  -->
<svg version="1.1" id="Layer_1" xmlns="http://www.w3.org/2000/svg" xmlns:xlink="http://www.w3.org/1999/xlink" x="0px" y="0px"
	 viewBox="0 0 72.2 77" enable-background="new 0 0 72.2 77" xml:space="preserve">
<path fill="#3997B5" d="M65.9,77H6.4c-3.5,0-6.3-2.8-6.3-6.3V11.3c0-3.5,2.8-6.3,6.3-6.3h59.5c3.5,0,6.3,2.8,6.3,6.3v59.5
	C72.2,74.2,69.4,77,65.9,77z"/>
<path fill="#39ADD1" d="M65.8,72.1H6.3c-3.5,0-6.3-2.8-6.3-6.3V6.3C0,2.8,2.8,0,6.3,0h59.5c3.5,0,6.3,2.8,6.3,6.3v59.5
	C72.1,69.3,69.3,72.1,65.8,72.1z"/>
<g>
	<path fill="#FFFFFF" d="M59,28.5l-7-3.8c-2.2-1.2-4.9-1.2-7.2-0.1c-4.1,2-8.3,5.5-10.2,6.9L14.5,46.6L32,54.1
		c7.7,3.3,16.6-0.3,19.8-8.1L59,28.5z"/>
	<polygon fill="#FFFFFF" points="18.8,22.9 44.8,30.8 27.5,38.7 	"/>
</g>
</svg>
