<svg xmlns="http://www.w3.org/2000/svg" viewBox="0 0 354.2 155.1">
    <path fill="#AFAFAF" d="M297.9 110.3h46v7.6h-46z"/>
    <path fill="#212121" d="M0 110.3h32v7.6H2.2c-1.2 0-2.2-1-2.2-2.2v-5.4z"/>
    <path fill="#212121" d="M10.5 112.8H0V92.4c0-2.9 2.4-5.2 5.2-5.2 2.9 0 5.2 2.4 5.2 5.2v20.4zm76.8-29.9h189v35.3h-189z"/>
    <path fill="#212121" d="M273.8 82.9h62.9V105h-62.9z"/>
    <path fill="#A06824" d="M189.1 53.4h145.7v18.5H189.1z"/>
    <path fill="#8E5A21" d="M135.1 71.8h204.3v7.6H135.1z"/>
    <path fill="#1B7C96" d="M15.7 100h103.9c5.8 0 10.4-4.7 10.4-10.4V25.9l-94.6 8.5c-5.7 0-10.7 5.9-12.1 14.4l-7.6 25.4V100z"/>
    <path fill="#333" d="M120.7 117.9H21.5l10.2-29 31.7-13.1h18.5l26.8 20.1 10.3 15.3z"/>
    <path fill="#8E5A21" d="M139.9 3h194.9v12.2H139.9zm49.2 16.8h145.7V32H189.1zm0 16.8h145.7v12.2H189.1z"/>
    <path fill="#A06824" d="M208 .3h8.9v71.5H208zm96.8 0h8.9v71.5h-8.9zM139.9 3h44.2v68.8h-44.2z"/>
    <path fill="#BDE6EF" d="M70.8 5.1L64 33.5h51.1V9.1c0-2.2-1.8-4-4-4H70.8z"/>
    <path fill="#9DBFC4" d="M54.6 5.1h13.2l-6.6 28.4h-15z"/>
    <path fill="#BDE6EF" d="M52.7 5.1h14.1l-6.6 28.4h-15z"/>
    <path fill="#085E72" d="M120.7 46.8H23.6l.9-3h96.2z"/>
    <path fill="#ADADAD" d="M97.6 52.5h18.1v3.1H97.6z"/>
    <ellipse fill="#FFF388" cx="12.5" cy="73.6" rx="2.9" ry="7.3"/>
    <path fill="#085E72" d="M67.7 65.7s-33-2.8-54.6-.6c-.7.1-1.2.7-1.1 1.3v14.7c0 1.4 1.2 2.5 2.6 2.4l28.5-2.3c0 .1 36-7.3 24.6-15.5z"/>
    <path fill="none" stroke="#085E72" stroke-width="2" stroke-miterlimit="10" d="M56.4 1h58.8s5.6.3 5.6 5.7V73s2.2 6.9-5.6 6.9H96.1"/>
    <path fill="#085E72" d="M15.9 102.5V75.8h19.6z"/>
    <path fill="#074F5B" d="M66 83.1c17.4 0 41.8 14.2 47.1 29.1 1.2 3.5 4.3 5.7 7.6 5.7 0-25.9-24.5-52.5-54.7-52.5-25 0-46 18.1-52.6 39-2.1 6.6 2.3 13.4 8.6 13.4h2.4c3.2 0 6-2.5 6.7-6C34.3 97.1 48.7 83.1 66 83.1zm287.2-13.9h-220v2.9H353c.6 0 1.1-.5 1.1-1.1v-.8c.1-.6-.3-1-.9-1z"/>
    <path fill="#085E72" d="M353.2 86.5h-220v-15H353c.6 0 1.1.5 1.1 1.1v12.9c.1.6-.3 1-.9 1z"/>
    <path d="M16.6 61.7H37m-19.3-3.8h20.8M18.8 54h21.1m-19.6-3.8h21" fill="none" stroke="#085E72" stroke-width="2" stroke-miterlimit="10"/>
    <path fill="#FFF" d="M18.9 63.3l4.3-14.4-6.1-1.4-3.4 16.3z"/>
    <path fill="#085E72" d="M54.3 0h2.1v2h-2.9z"/>
    <circle fill="#0A0A0A" cx="276.3" cy="124.5" r="30.6"/>
    <circle fill="#ADADAD" cx="276.3" cy="124.5" r="15.7"/>
    <circle fill="#0A0A0A" cx="66.8" cy="124.5" r="30.6"/>
    <circle fill="#ADADAD" cx="66.8" cy="124.5" r="15.7"/>
</svg>
