<?xml version="1.0" encoding="utf-8"?>
<!-- Generator: Adobe Illustrator 18.1.1, SVG Export Plug-In . SVG Version: 6.00 Build 0)  -->
<svg version="1.1" id="Layer_1" xmlns="http://www.w3.org/2000/svg" xmlns:xlink="http://www.w3.org/1999/xlink" x="0px" y="0px"
	 viewBox="0 0 251.2 474.4" enable-background="new 0 0 251.2 474.4" xml:space="preserve">
<path fill="#7E7096" d="M166.3,297.8c-3.1-0.2-6.1-1.7-8.1-4.1c-5.2-5.9-4.9-16.4-5.7-23.7c-1-9.5-2-18.9-3.1-28.4
	c-3.3-28.6-7.4-57-10.9-85.6c-0.8-6.7-0.9-15,4.8-18.5c4.8-2.9,11.3-0.6,14.8,3.7c3.6,4.3,4.9,9.9,5.9,15.4
	c7.1,35.8,9,72.4,11,108.9c0.4,8.2,5.8,29.1-5.8,32.1C168.3,297.8,167.3,297.9,166.3,297.8z"/>
<path fill="#897C9F" d="M60,472.8c24,1.4,48.1,1.9,72.2,1.3c6.6-0.2,14.1-0.8,18.3-5.9c3-3.7,3.4-8.7,3.8-13.4
	c6.7-94.8,6.5-190.2-0.4-285c-1-13.5-2.6-28.1-11.9-37.9c-8.4-8.8-21.2-11.6-33.3-12.5c-15.2-1.1-30.5,0.3-45.4,3.4
	c-10.2,2.1-20.9,5.4-27.4,13.5c-6.4,8-7.4,19-7.9,29.3c-5,92.9,0,185.9,5.1,278.8c0.4,8,1.3,16.8,7.1,22.3
	C45.3,471.6,52.9,472.4,60,472.8z"/>
<path fill="#FABCA1" d="M50.6,132.6c0.3,7.1-5.4,10.4-12.5,10.7s-13-5.3-13.3-12.4c-0.3-7.1,5.3-13,12.4-13.3
	c7.1-0.3,13.3,2.7,13.6,9.8"/>
<path fill="#FABCA1" d="M128.5,127.6c0.2,6.1,5.2,8.6,11.3,8.3c6.1-0.2,10.8-5.3,10.6-11.4c-0.2-6.1-5.3-10.8-11.4-10.6
	c-6.1,0.2-11.2,3.1-11,9.1"/>
<rect x="49.3" y="80.5" transform="matrix(0.9994 -3.573070e-02 3.573070e-02 0.9994 -4.4436 3.3044)" fill="#FABCA1" width="81.8" height="91"/>
<polygon fill="#D4D5D8" points="128.8,91.8 131.8,115.4 146.9,109.8 138.4,104 138.7,92.1 "/>
<polygon fill="#FFFFFF" points="58.5,116.9 94.3,109 93.9,96.6 57.2,103.6 "/>
<polygon fill="#FFFFFF" points="104.7,106.3 106,114.9 135.5,117.7 135.8,106 "/>
<path fill="#3F3764" d="M104.2,145.6l-21.8,3.2c0,0,15.1,7.5,20.5,6.9c4-0.4,18.6-10.7,18.6-10.7L104.2,145.6z"/>
<polygon fill="#D4D5D8" points="60.9,89.1 48.8,103.1 54.3,120.2 49.2,121.9 31.9,114 40.9,110.2 39.8,94.1 "/>
<polygon fill="#E8E7E9" points="102.1,78.4 79.2,93.5 31.2,95.3 44.2,88.1 57,71.6 103.4,69.9 "/>
<polygon fill="#E8E7E9" points="90.4,82.6 111.4,95.3 148,97.1 150.5,86.3 142,86.6 130.3,69.7 97.2,69.6 "/>
<path fill="#F7A582" d="M45,130c0,0-10.4-4.2-12.4,3.5l9.2-0.3l1.2,2.3l2.2-0.1L45,130z"/>
<path fill="#F7A582" d="M135.6,121.9c0,0,9.2-4.5,11.6,2.4l-8.4,0.3l-0.9,2.2l-2,0.1L135.6,121.9z"/>
<g>
	<path opacity="0.2" fill="#3F3764" d="M48.2,130.1l24.5,19.8l29-10.4l26.9,4l2.9-5.1l1.8-10.5c3.3,0.9,3.6,14.7,2.8,18.1
		c-1.9,8.7-4.3,21.1-2.5,29.9c1,5.1,4,9.9,5.2,15.1c1.2,5.6,1.8,11.4,1.9,17.1c0.2,11.6-1.4,23.1-3,34.5c-3,21.3-6,42.6-9,63.8
		c-1.5,10.6-3,21.3-4.5,31.9c-1.3,9.4-3.7,18-5.4,27.3c-1,5.9-6.1,34.2-17.4,27c-2.1-1.3-3.3-3.7-4.4-6
		c-5.6-12.2-9.3-25.2-12.1-38.3c-2.8-13.3-3.3-27.2-6.4-40.3c-3.2-13.5-8.1-26.6-10.9-40.3c-1.9-9-2.9-18.2-4-27.3
		c-0.5-4.5-0.4-9.8-1.8-14.1c-1.1-3.5-3.8-6.5-5.7-9.9c-8-14.2-11-31.3-8.1-47.3"/>
	<path fill="#FFFFFF" d="M47.9,120.9c4.6,3.7,9.3,7.5,13.9,11.2c2.9,2.3,6,4.6,8.7,7.1c2,1.8,3,2.2,5.8,1.4c2.6-0.7,5.1-2.2,6.9-4.2
		c1.5-1.7,2.7-3.7,4.5-5c1.6-1.2,3.5-1.7,5.5-1.9c3.9-0.3,7.8,0.3,11.6,1c1.9,0.3,3.7,0.7,5.6,1c2.7,0.5,2.4-0.2,4.6-1.5
		c0.8-0.5,1.7-0.7,2.6-0.5c0.9,0.2,1.5,0.9,2.2,1.5c0.9,0.9,1.9,1.8,3,2.6c1,0.8,2.1,1.5,3.4,1.6c2.7,0.2,4-4.1,5.1-6l1.8-10.5
		c3.3,0.9,3.6,14.7,2.8,18.1c-1.9,8.7-4.3,21.1-2.5,29.9c1,5.1,4,9.9,5.2,15.1c1.2,5.6,1.8,11.4,1.9,17.1c0.2,11.6-1.4,23.1-3,34.5
		c-3,21.3-6,42.6-9,63.8c-1.5,10.6-3,21.3-4.5,31.9c-1.3,9.4-3.7,18-5.4,27.3c-1,5.9-6.1,34.2-17.4,27c-2.1-1.3-3.3-3.7-4.4-6
		c-5.6-12.2-9.3-25.2-12.1-38.3c-2.8-13.3-3.3-27.2-6.4-40.3c-3.2-13.5-8.1-26.6-10.9-40.3c-1.9-9-2.9-18.2-4-27.3
		c-0.5-4.5-0.4-9.8-1.8-14.1c-1.1-3.5-3.8-6.5-5.7-9.9c-8-14.2-11-31.3-8.1-47.3"/>
	<path opacity="0.2" fill="#3F3764" d="M96,132c-0.2-4.6,3.4-7.5,8.1-7.7s10.5,3.2,10.6,7.9c0.2,4.6,1,8.3-3.7,9.6
		C106.6,143,96.2,136.7,96,132z"/>
	<path fill="#FABCA1" d="M95.9,131.2c-0.2-4.6,3.5-8.5,8.1-8.7s10.6,3.4,10.8,8s-3.4,8.5-8.1,8.7S96.1,135.8,95.9,131.2z"/>
	<path fill="#415059" d="M113.1,150.6c2.3-1.5,4.6-3,6.8-4.5c0.9-0.6,1.6-1,0.2-1.4c-1.2-0.4-3.2,0.3-4.3,0.6
		c-1.8,0.5-3.5,1.2-5.3,1.4c-2,0.3-3.2-0.5-5-1c-1.4-0.3-2.4,1-3.5,1.7c-1.4,0.8-2.9,1.3-4.5,1.5c-2.7,0.3-5.4-0.1-8.2-0.4
		c-0.9-0.1-5.2-0.9-5.5,0.2c-0.4,1.3,3.1,2.3,3.9,2.7"/>
	<path fill="#E36564" d="M87.8,151.3c4.9,2.1,11.8,4.8,15.1,4.4c1.9-0.2,6.3-2.6,10.3-5.2"/>
</g>
<path fill="#E8E7E9" d="M91.1,159.8c0,0,14.2,12.6,23.4-2.5S111,187.5,91.1,159.8z"/>
<path fill="#7E7096" d="M42.1,471.3c-5.9-74.1-7.1-148.6-3.8-222.9c1.3-28.7,3.3-57.4,4.8-86.1c0.4-6.8-0.1-15-6.2-18.1
	c-4.9-2.5-11.3,0.2-14.5,4.7c-3.3,4.5-4.1,10.3-4.8,15.8c-4.5,36.2-3.8,72.9-3.2,109.4c1,55.9,2,111.7,3,167.6
	c0.1,7.9,0.4,16.3,4.5,23C26,471.4,35.5,475.6,42.1,471.3z"/>
<path fill="#415059" d="M69.5,122.3c-0.1-1.8,1.2-5.9,3-6c1.8-0.1,3.3,4,3.4,5.7c0.1,1.8-1.3,3.3-3.1,3.3
	C71.1,125.5,69.6,124.1,69.5,122.3z"/>
<path fill="#415059" d="M118,119.5c-0.1-1.4,1-3.3,2.5-3.4c1.4-0.1,2.7,1.8,2.7,3.2c0.1,1.4-1.1,2.6-2.5,2.7
	C119.2,122.1,118,121,118,119.5z"/>
<path fill="#F7A582" d="M66.5,124l12.1-1.4C78.6,122.6,75,135.9,66.5,124z"/>
<path fill="#F7A582" d="M117,119.4l7.5,0C124.5,119.3,121.4,127.3,117,119.4z"/>
<g>
	<path fill="#897C9F" d="M120.8,50.9c58.6-10.3,95.8,5.2,9.7,40.1C24.2,134.2-39.9,96.3,27.9,73.1S66.2,60.5,120.8,50.9z"/>
	<path fill="#7E7096" d="M50.5,76.2c-1-0.1,11.6-47.3,11.6-47.3L58,44.5c0,0-48,19.3-56.6,3.8c0,0,33.7-12.7,53.2-36.4
		c20.6-25,60.7-11.7,70.1,49.6C124.8,61.6,110.7,81.9,50.5,76.2z"/>
	<path fill="#72648D" d="M127.3,58.7c0,0,0,17.2-45,23.3c-35.1,4.8-34-8.2-34.1-10.9l5.4-10.4c0,0,5.1-1.9,68.1-15.5L127.3,58.7z"/>
	<polygon fill="#72648D" points="50.7,47 57.8,45.4 62.1,28.9 	"/>
	<path fill="#FCDBEE" d="M127.3,58.7c0,0-0.3,12.9-45.2,19c-35.1,4.8-33.8-4-33.9-6.6l5.4-10.4c0,0,3.5-3.5,68.1-15.5L127.3,58.7z"
		/>
</g>
<g>
	<path fill="#7E7096" d="M228.5,150.3c5.8,0.7,11.9,3.4,15.3,6.9c10.5,10.9,6.2,30.1,6.4,44c0.3,17.5,0.6,35.1,0.9,52.6
		c0.1,4.3,0.1,8.9-2,12.7c-3.7,6.9-13.1,9-20.7,6.8c-7.6-2.1-13.8-7.3-20.1-12.1c-2.7-2-5.9-4.1-9.3-3.5c-2.7,0.5-4.7,2.6-6.4,4.7
		c-6,7.5-9,15.5-12.4,24.3c-2.3,5.9-6.3,14.2-13.7,14.3c-5.6,0.1-10-5.2-10.9-10.7c-0.9-5.5,0.8-11,2.7-16.3
		c12-34.5,21.4-79.3,38.2-111.7c4-7.7,14-9,23.6-11.7C222.6,150,225.6,149.9,228.5,150.3z"/>
	<path fill="#675985" d="M231,264.2c3.3,2.2,8,2.6,11.1,0.1c3.9-3.1,3.8-9,3.3-14c-1.3-14.2-2.6-28.3-3.9-42.5
		c-1.3-14.1-1.6-25-9.6-37c-2.1-3.2-4.9-6.5-8.6-7c-7.3-0.9-11.9,8.5-13.3,14.3c-2.1,8.8,1.1,18.7,4.4,26.8
		c4.1,10.1,9.5,20.1,10.2,31c0.3,4.7-0.3,9.4,0,14s1.5,9.5,4.8,12.9C229.8,263.3,230.4,263.8,231,264.2z"/>
	<path fill="#A26C4B" d="M245.9,448.1c-2.2-22.5-13.4-235.2-15.6-257.7c-3.9-0.2-7.7-0.5-11.6-0.7c1.1,20.6,11.2,231.3,12.3,251.8
		c0.2,4.3,0.6,8.9,3.4,12.2C237.2,456.9,246.1,450,245.9,448.1z"/>
	<path fill="#8E5F44" d="M232,215.8c-0.8-12.6-1.4-21.6-1.8-25.4c-3.9-0.2-7.7-0.5-11.6-0.7c0.2,3.5,0.6,12.7,1.3,25.5"/>
	<path fill="#FABCA1" d="M202.3,188.7c0.4,0.7,2.5,3.7,3.4,3.6c0,4.1-1,6.2,2.4,9.4c3.2,3,5.3,2.8,9.3,2.8c4.1,0,8.6,2.4,12.6,1.8
		c4.2-0.6,9.4-4.9,13.2-7c2-1.1,4.1-2.3,5.5-4.1c2-2.7,2.2-6.3,2.3-9.7c0.2-8.2-0.1-17.4-4.6-24.6c-1.9-3-4.6-5.5-8-6.6
		c-2-0.6-8.9-2.1-9.4,0.5c-0.2,1.2,1,2.4,0.6,3.7c-0.4,1.3-1.5,1.9-2.8,2c-3.9,0.5-7.8,0.1-11.8,1c-3.6,0.8-7,2.4-9.4,5.3
		c-1.6,1.8-2.3,3.9-2,6.3c0.2,1.4,1,2.5,0.8,3.9C203.9,181.1,200.1,184.3,202.3,188.7z"/>
	<path fill="#A26C4B" d="M226.6,114.2c-0.9-12.1-1.9-24.2-2.9-36.2c0,0-3.3,2.9-4.7,2.9c-1.9,0.1-6.8-3.6-6.8-3.6
		c0.2,6.6,0.4,12.4,0.4,13.3c0.9,18.3,1.7,36.7,2.6,55c0.1,3,0.3,5.9,0.5,8.9c0.1,0.9,1.2,9.2,1.2,9.2s4.3-1.1,6.8-1
		c1.2,0.1,3.1-1.6,4.2-2.2c0.8-0.5,1.3-1.5,1.6-2.9c1-4.7-0.6-13.2-0.8-16C228,132.5,227.3,123.4,226.6,114.2z"/>
	<path fill="#8E5F44" d="M223.7,78c-0.4-4.8-0.8-9.6-1.2-14.4c-0.1-1.7-0.3-3.4-0.4-5c-3.9-0.4-7.7-0.8-11.6-1.1
		c0.8,0.1,1.4,10.7,1.7,19.9c0,0,4.9,3.7,6.8,3.6C220.4,80.9,223.7,78,223.7,78z"/>
	<g>
		<polygon fill="#F4825C" points="240.5,53.2 239.1,21.6 246.8,21.6 217.1,20.6 		"/>
		<polygon fill="#EF5132" points="196.9,23.7 196.9,53.2 217.1,20.6 		"/>
		<polygon fill="#EF5132" points="218,53.2 196.9,53.2 219.1,74 240.5,53.2 		"/>
		<polygon fill="#F4825C" points="206.1,38.6 217.6,38.6 217.1,20.6 196.9,53.2 218,53.2 217.9,52.8 		"/>
		<polygon fill="#F8B49D" points="217.6,38.6 229.8,38.6 218,52.8 217.9,52.8 218,53.2 240.5,53.2 217.1,20.6 		"/>
		<polygon fill="#F69976" points="188.8,57.9 219.1,74 196.9,53.2 		"/>
		<polygon fill="#F4825C" points="196.9,23.7 187.6,23.7 188.8,57.9 196.9,53.2 		"/>
		<polygon fill="#F8B49D" points="216.6,5.6 187.6,23.7 196.9,23.7 		"/>
		<polygon fill="#F4825C" points="217.1,20.6 216.6,5.6 196.9,23.7 		"/>
		<polygon fill="#F4825C" points="240.5,53.2 219.1,74 248.1,55.8 		"/>
		<polygon fill="#EF5132" points="246.8,21.6 216.6,5.6 217.1,20.6 		"/>
		<polygon fill="#F69976" points="240.5,53.2 248.1,55.8 246.8,21.6 239.1,21.6 		"/>
		<polygon fill="#F69976" points="217.9,52.8 218,52.8 229.8,38.6 217.6,38.6 206.1,38.6 		"/>
	</g>
</g>
</svg>
