<?xml version="1.0" encoding="utf-8"?>
<!-- Generator: Adobe Illustrator 18.1.1, SVG Export Plug-In . SVG Version: 6.00 Build 0)  -->
<svg version="1.1" id="Layer_1" xmlns="http://www.w3.org/2000/svg" xmlns:xlink="http://www.w3.org/1999/xlink" x="0px" y="0px"
	 viewBox="0 0 72.2 77" enable-background="new 0 0 72.2 77" xml:space="preserve">
<path fill="#4EA29E" d="M65.9,77H6.4c-3.5,0-6.3-2.8-6.3-6.3V11.3c0-3.5,2.8-6.3,6.3-6.3h59.5c3.5,0,6.3,2.8,6.3,6.3v59.5
	C72.2,74.2,69.4,77,65.9,77z"/>
<path fill="#F3F3F3" d="M65.8,72.1H6.3c-3.5,0-6.3-2.8-6.3-6.3V6.3C0,2.8,2.8,0,6.3,0h59.5c3.5,0,6.3,2.8,6.3,6.3v59.5
	C72.1,69.3,69.3,72.1,65.8,72.1z"/>
<path fill="#53BBB4" d="M72.1,23.8v36.6c0,6.5-5.2,11.7-11.7,11.7H11.7C5.2,72.1,0,66.9,0,60.4V22.6"/>
<path fill="#E6E6E6" d="M0,22.6V11.7C0,5.2,5.2,0,11.7,0h48.7c6.5,0,11.7,5.2,11.7,11.7v12.1"/>
<polygon fill="#3D3D3D" points="16.5,23.2 0.2,23.2 15.9,0 32.2,0 "/>
<polygon fill="#3D3D3D" points="46.7,23.2 30.4,23.2 46.1,0 62.4,0 "/>
</svg>
