<?xml version="1.0"?>
<svg version="1.1" id="圖層_1" xmlns="http://www.w3.org/2000/svg" x="0" y="0" viewBox="0 0 100 100" xml:space="preserve"><path d="M84.2 30c-11.5 0-22.9-.1-34.4 0-9.7.1-16.8 5.8-19.8 14.9-2-3.1-3.8-6.4-5.7-9.6-1-1.7-2-3.3-3-5-.7-1.2-2.7-3.4-2.6-4.8.1-1.1 1.7-2.4 2.4-3.2 1.1-1.2 2.3-2.3 3.5-3.3 2.3-1.9 4.9-3.6 7.6-5 11.5-5.7 25.6-5.5 36.8.8 3.2 1.8 6.2 4 8.8 6.6 1.3 1.3 2.6 2.8 3.7 4.3.6.8 3 3.4 2.7 4.3z" fill="#da5548"/><path d="M50.5 89.9c5.6-9.6 11.3-19.2 16.8-28.9 2.4-4.3 3.7-8.9 3-13.9-.7-4.8-3.3-8.6-6.4-12.2h21c1.9 0 2.3.1 2.9 1.9.6 1.6 1 3.2 1.4 4.8.7 3.4.9 7 .8 10.5-.6 12.8-7.7 24.5-18.4 31.5-6.1 4.1-13.8 6.7-21.1 6.3z" fill="#f9cf5a"/><path d="M55.7 69.5c-2 3.5-4 7-6.1 10.5-.9 1.6-1.8 3.1-2.7 4.7l-1.5 2.7c-.3.6-.8 1.8-1.5 2.1-1 .4-3-.4-4-.7-1.4-.4-2.8-.8-4.2-1.3-2.7-1-5.2-2.3-7.6-3.9-10.4-6.8-16.9-18-17.9-30.3-.7-7.8.9-16.3 4.9-23.1 5.9 9.6 11 19.8 16.8 29.5 2.4 4.1 5.7 7.3 10 9.2 4.6 1.9 9 1.7 13.8.6z" fill="#67a648"/><path d="M35.1 51c-.7-6.5 3.7-12.7 9.7-15 5.2-2 11.1-.8 15.2 2.9 4.5 4 6.1 10.6 4.1 16.2C62 60.9 56 65.4 49.7 65c-3.8-.2-7.2-1.5-10-4.2-1.4-1.3-2.5-2.9-3.3-4.6-.4-.9-.8-2-1-3-.1-.5.1-1.8-.3-2.2z" fill="#3790ce"/><path d="M35.2 48.3c0 .3.1.5-.1.8 0-.3-.1-.6.1-.8z" fill="#3790ce"/><path d="M35.1 51c.2.2.1.5.1.8-.2-.3-.1-.6-.1-.8z" fill="#3790ce"/><path d="M48.3 64.8c.3 0 .5-.1.8.1-.3.1-.6.1-.8-.1z" fill="#3790ce"/><path d="M51 64.9c.2-.2.5-.1.8-.1-.3.2-.5.2-.8.1z" fill="#3790ce"/><path d="M35.4 47.2c0 .2 0 .3-.1.5-.1-.2-.1-.4.1-.5z" fill="#3790ce"/><path d="M47.2 64.7c.2 0 .3 0 .4.1-.1 0-.2 0-.4-.1z" fill="#3790ce"/><path d="M52.4 64.8c.1-.1.3-.1.4-.1-.1.1-.2.1-.4.1z" fill="#3790ce"/><path d="M35.3 52.5c0 .1.1.2.1.3-.1-.1-.2-.2-.1-.3z" fill="#3790ce"/><metadata xmlns:d="https://loading.io/stock/"><d:name>google chrome</d:name><d:tags>alphabet,android,browser,google chrome,web application</d:tags><d:license>free</d:license><d:slug>8lb39h</d:slug></metadata></svg>