<?xml version="1.0"?>
<svg version="1.1" id="圖層_1" xmlns="http://www.w3.org/2000/svg" x="0" y="0" viewBox="0 0 100 100" xml:space="preserve"><path d="M10 80.6v-6.1c.1-.2.2-.3.3-.5 1.1-7.3 3.8-14.1 7.3-20.5 4.6-8.6 10.4-16.3 17.6-23 .3-.2.7-.4.5-1.2-6.5 3.6-11.6 8.7-16.5 14.1-.2-.4-.1-.7 0-.9C23.5 26.9 37.7 16.1 54 16.1c1.2 0 2.3-.2 3.5-.7 4.8-2.1 9.8-3.8 15-4.5.7-.1 1.5.1 2.1-.4h3c1.5.5 3 .5 4.5 1 4.6 1.7 7.4 6.8 6.7 12.5-.4 3.4-1.3 6.7-2.6 9.8-.3.6-.3 1.1 0 1.7 2.9 6 4.2 12.3 3.6 19-.1 1.4-.6 1.6-1.8 1.6H39.8c-.7 0-.9.3-.9 1 0 2 .4 3.9 1.3 5.7 2.8 5.5 7.3 8.8 13.5 9.1 6 .3 10.9-2.1 14.4-7.1.4-.6.8-1 1.6-1h17.2c1 0 1.2.3.8 1.2-1.9 4.7-4.5 9-8.2 12.5-10.9 10-23.6 12.2-37.4 8-2.8-.8-4.9-.9-7.4.4-4.3 2.2-9 3.6-13.9 3.5-5.2-.2-9.5-2.7-10.5-8.1 0-.2 0-.5-.3-.7zm44.3-33.9h12.1c4 0 4-.1 2.9-3.9-2.9-9.5-13.4-13.6-22.2-8.7-4.2 2.3-7 5.8-8 10.5-.4 2-.3 2.1 1.7 2.1h13.5zM20.4 63.9c-2.5 4.1-4.4 9.6-4.5 13.9-.1 5.7 3.1 9.6 9.5 8.8 3.2-.4 6.2-1.6 9.1-2.9.4-.2 1-.2 1-.8 0-.5-.6-.6-.9-.8-3.2-2-6-4.6-8.3-7.5-2.5-3.2-4.4-6.8-5.9-10.7zm46.7-45.5c7.5 3 13.3 7.6 17.6 14.3 1.5-3.3 2.5-6.4 2.4-9.8-.1-3.6-2-6.1-5.5-7-5.1-1.2-9.6.5-14.5 2.5z" fill="#53bbea"/><metadata xmlns:d="https://loading.io/stock/"><d:name>internet explorer</d:name><d:tags>ie,browser,microsoft,edge,internet explorer,web application</d:tags><d:license>free</d:license><d:slug>atvhgf</d:slug></metadata></svg>